<svg width="158" height="54" viewBox="0 0 158 54" fill="none" xmlns="http://www.w3.org/2000/svg">
<path d="M14.652 19.66C16.308 19.66 17.784 20.08 19.08 20.92C20.4 21.736 21.432 22.924 22.176 24.484C22.944 26.02 23.328 27.844 23.328 29.956C23.328 32.044 22.944 33.868 22.176 35.428C21.432 36.988 20.4 38.188 19.08 39.028C17.784 39.844 16.308 40.252 14.652 40.252C13.116 40.252 11.796 39.904 10.692 39.208C9.588 38.512 8.784 37.564 8.28 36.364V40H2.124V13.36H8.28V23.548C8.784 22.348 9.588 21.4 10.692 20.704C11.796 20.008 13.116 19.66 14.652 19.66ZM12.672 25.06C11.376 25.06 10.308 25.504 9.468 26.392C8.652 27.256 8.244 28.444 8.244 29.956C8.244 31.444 8.652 32.632 9.468 33.52C10.308 34.408 11.376 34.852 12.672 34.852C13.992 34.852 15.048 34.42 15.84 33.556C16.656 32.692 17.064 31.492 17.064 29.956C17.064 28.42 16.656 27.22 15.84 26.356C15.048 25.492 13.992 25.06 12.672 25.06ZM25.9464 14.26C25.9464 13.324 26.2824 12.556 26.9544 11.956C27.6264 11.332 28.5144 11.02 29.6184 11.02C30.7224 11.02 31.6104 11.332 32.2824 11.956C32.9544 12.556 33.2904 13.324 33.2904 14.26C33.2904 15.172 32.9544 15.94 32.2824 16.564C31.6104 17.164 30.7224 17.464 29.6184 17.464C28.5144 17.464 27.6264 17.164 26.9544 16.564C26.2824 15.94 25.9464 15.172 25.9464 14.26ZM32.6784 19.912V40H26.5224V19.912H32.6784ZM48.3047 34.708V40H45.5327C43.1807 40 41.3447 39.424 40.0247 38.272C38.7287 37.096 38.0807 35.164 38.0807 32.476V25.096H35.3807V19.912H38.0807V14.98H44.2367V19.912H48.2687V25.096H44.2367V32.584C44.2367 33.376 44.3927 33.928 44.7047 34.24C45.0407 34.552 45.5927 34.708 46.3607 34.708H48.3047ZM59.3966 19.66C60.9326 19.66 62.2526 20.008 63.3566 20.704C64.4606 21.4 65.2646 22.348 65.7686 23.548V13.36H71.9246V40H65.7686V36.364C65.2646 37.564 64.4606 38.512 63.3566 39.208C62.2526 39.904 60.9326 40.252 59.3966 40.252C57.7406 40.252 56.2526 39.844 54.9326 39.028C53.6366 38.188 52.6046 36.988 51.8366 35.428C51.0926 33.868 50.7206 32.044 50.7206 29.956C50.7206 27.844 51.0926 26.02 51.8366 24.484C52.6046 22.924 53.6366 21.736 54.9326 20.92C56.2526 20.08 57.7406 19.66 59.3966 19.66ZM61.3766 25.06C60.0566 25.06 58.9886 25.492 58.1726 26.356C57.3806 27.22 56.9846 28.42 56.9846 29.956C56.9846 31.492 57.3806 32.692 58.1726 33.556C58.9886 34.42 60.0566 34.852 61.3766 34.852C62.6726 34.852 63.7286 34.408 64.5446 33.52C65.3846 32.632 65.8046 31.444 65.8046 29.956C65.8046 28.444 65.3846 27.256 64.5446 26.392C63.7286 25.504 62.6726 25.06 61.3766 25.06ZM95.2431 29.416C95.2431 29.92 95.1831 30.472 95.0631 31.072H81.1311C81.2031 32.584 81.5871 33.676 82.2831 34.348C82.9791 34.996 83.8671 35.32 84.9471 35.32C85.8591 35.32 86.6151 35.092 87.2151 34.636C87.8151 34.18 88.2111 33.592 88.4031 32.872H94.9191C94.6551 34.288 94.0791 35.56 93.1911 36.688C92.3031 37.792 91.1751 38.668 89.8071 39.316C88.4391 39.94 86.9151 40.252 85.2351 40.252C83.2671 40.252 81.5151 39.844 79.9791 39.028C78.4671 38.188 77.2791 36.988 76.4151 35.428C75.5511 33.868 75.1191 32.044 75.1191 29.956C75.1191 27.844 75.5391 26.02 76.3791 24.484C77.2431 22.924 78.4431 21.736 79.9791 20.92C81.5151 20.08 83.2671 19.66 85.2351 19.66C87.2271 19.66 88.9791 20.068 90.4911 20.884C92.0031 21.7 93.1671 22.852 93.9831 24.34C94.8231 25.804 95.2431 27.496 95.2431 29.416ZM89.0151 28.48C89.0391 27.16 88.6791 26.176 87.9351 25.528C87.2151 24.856 86.3151 24.52 85.2351 24.52C84.1071 24.52 83.1711 24.856 82.4271 25.528C81.6831 26.2 81.2631 27.184 81.1671 28.48H89.0151ZM124.48 19.696C126.952 19.696 128.896 20.464 130.312 22C131.728 23.512 132.436 25.624 132.436 28.336V40H126.316V29.056C126.316 27.784 125.968 26.8 125.272 26.104C124.6 25.384 123.676 25.024 122.5 25.024C121.276 25.024 120.304 25.408 119.584 26.176C118.888 26.92 118.54 27.976 118.54 29.344V40H112.384V29.056C112.384 27.784 112.048 26.8 111.376 26.104C110.704 25.384 109.78 25.024 108.604 25.024C107.38 25.024 106.408 25.396 105.688 26.14C104.968 26.884 104.608 27.952 104.608 29.344V40H98.4521V19.912H104.608V23.332C105.136 22.204 105.94 21.316 107.02 20.668C108.124 20.02 109.408 19.696 110.872 19.696C112.408 19.696 113.764 20.056 114.94 20.776C116.116 21.472 117.004 22.48 117.604 23.8C118.3 22.552 119.248 21.556 120.448 20.812C121.672 20.068 123.016 19.696 124.48 19.696ZM141.17 19.912L145.994 32.224L150.494 19.912H157.298L144.77 49.576H138.002L142.718 39.244L134.294 19.912H141.17Z" fill="white"/>
<circle cx="29.5" cy="14.5" r="4.5" fill="#9422CA"/>
</svg>
